<?xml version="1.0" encoding="UTF-8" standalone="no"?>
<svg
   width="1440"
   height="810"
   viewBox="0 0 1440 810"
   role="img"
   aria-labelledby="title description"
   version="1.1"
   id="svg76"
   sodipodi:docname="how-do-you-know.svg"
   inkscape:version="1.4.4 (dcaf3e7d9e, 2026-05-05)"
   xmlns:inkscape="http://www.inkscape.org/namespaces/inkscape"
   xmlns:sodipodi="http://sodipodi.sourceforge.net/DTD/sodipodi-0.dtd"
   xmlns="http://www.w3.org/2000/svg"
   xmlns:svg="http://www.w3.org/2000/svg">
  <sodipodi:namedview
     id="namedview76"
     pagecolor="#ffffff"
     bordercolor="#000000"
     borderopacity="0.25"
     inkscape:showpageshadow="2"
     inkscape:pageopacity="0.0"
     inkscape:pagecheckerboard="0"
     inkscape:deskcolor="#d1d1d1"
     showguides="false"
     inkscape:zoom="0.71875"
     inkscape:cx="800.69565"
     inkscape:cy="502.95652"
     inkscape:window-width="2048"
     inkscape:window-height="1064"
     inkscape:window-x="0"
     inkscape:window-y="0"
     inkscape:window-maximized="1"
     inkscape:current-layer="svg76" />
  <title
     id="title">How do you know?</title>
  <desc
     id="description">A hand-drawn ruler along the top, with an ambulance siren, a ghost, and a candy illustrated below. Black ink and vermilion on warm textured paper.</desc>
  <defs
     id="defs2">
    <filter
       id="paper-grain"
       x="0"
       y="0"
       width="1"
       height="1">
      <feTurbulence
         type="fractalNoise"
         baseFrequency=".76"
         numOctaves="3"
         seed="17"
         stitchTiles="stitch"
         id="feTurbulence1" />
      <feColorMatrix
         type="saturate"
         values="0"
         id="feColorMatrix1" />
    </filter>
    <filter
       id="ink-edge"
       x="-0.0032277996"
       y="-0.027071065"
       width="1.0064563"
       height="1.0541471">
      <feTurbulence
         type="fractalNoise"
         baseFrequency=".075 .14"
         numOctaves="3"
         seed="9"
         result="noise"
         id="feTurbulence2" />
      <feDisplacementMap
         in="SourceGraphic"
         in2="noise"
         scale="1.6"
         xChannelSelector="R"
         yChannelSelector="G"
         id="feDisplacementMap2" />
    </filter>
  </defs>
  <rect
     width="1440"
     height="810"
     fill="#fbf7ec"
     id="rect2" />
  <rect
     width="1440"
     height="810"
     filter="url(#paper-grain)"
     opacity=".065"
     style="mix-blend-mode:multiply"
     id="rect3" />
  <g
     id="ruler-10"
     transform="matrix(1.306477,0,0,1.306477,-228.45985,270.9508)"
     style="filter:url(#ink-edge)">
    <path
       d="m 234,198 c 244,-7 526,3 767,-2 96,-2 102.7778,-1.66667 218.1111,1 2.6667,28.66667 3.3333,65.66667 2,111 C 841.11111,313 613,315 232,310 c -2.66667,-38.66667 -2,-76 2,-112 z"
       fill="#fbf7ec"
       stroke="#161612"
       stroke-width="6.4"
       stroke-linecap="round"
       stroke-linejoin="round"
       id="path3"
       sodipodi:nodetypes="cccccc" />
    <path
       d="m 270,307 q 0.61,-20.2 -0.41,-39.6"
       fill="none"
       stroke="#161612"
       stroke-width="4.62674"
       stroke-linecap="round"
       stroke-linejoin="round"
       id="path4" />
    <path
       d="m 291,307 q 0.62,-6.5 0.9,-11.11"
       fill="none"
       stroke="#161612"
       stroke-width="2.0567"
       stroke-linecap="round"
       stroke-linejoin="round"
       id="path5" />
    <path
       d="m 312,307 q 1.19,-9.2 0.25,-18.86"
       fill="none"
       stroke="#161612"
       stroke-width="3.18242"
       stroke-linecap="round"
       stroke-linejoin="round"
       id="path6" />
    <path
       d="m 333,307 q -0.83,-4.6 0.97,-11.53"
       fill="none"
       stroke="#161612"
       stroke-width="2.33891"
       stroke-linecap="round"
       stroke-linejoin="round"
       id="path7" />
    <path
       d="m 354,307 q -0.35,-13.26 -0.11,-28.91"
       fill="none"
       stroke="#161612"
       stroke-width="4.21758"
       stroke-linecap="round"
       stroke-linejoin="round"
       id="path8" />
    <path
       d="m 375,307 q 0.21,-3.99 1.09,-10.06"
       fill="none"
       stroke="#161612"
       stroke-width="2.11071"
       stroke-linecap="round"
       stroke-linejoin="round"
       id="path9" />
    <path
       d="m 396,307 q 0.99,-9.28 -0.22,-19.54"
       fill="none"
       stroke="#161612"
       stroke-width="2.96324"
       stroke-linecap="round"
       stroke-linejoin="round"
       id="path10" />
    <path
       d="m 417,307 q 0.19,-5.54 0.47,-11.46"
       fill="none"
       stroke="#161612"
       stroke-width="2.04049"
       stroke-linecap="round"
       stroke-linejoin="round"
       id="path11" />
    <path
       d="m 438,307 q -0.52,-14.71 -0.49,-30.59"
       fill="none"
       stroke="#161612"
       stroke-width="3.77774"
       stroke-linecap="round"
       stroke-linejoin="round"
       id="path12" />
    <path
       d="m 459,307 q -0.58,-4.75 -0.91,-10.75"
       fill="none"
       stroke="#161612"
       stroke-width="2.36609"
       stroke-linecap="round"
       stroke-linejoin="round"
       id="path13" />
    <path
       d="m 480,307 q -0.82,-8.99 0.16,-19.88"
       fill="none"
       stroke="#161612"
       stroke-width="2.98674"
       stroke-linecap="round"
       stroke-linejoin="round"
       id="path14" />
    <path
       d="m 501,307 q 0.51,-4.54 -0.74,-11.71"
       fill="none"
       stroke="#161612"
       stroke-width="2.19443"
       stroke-linecap="round"
       stroke-linejoin="round"
       id="path15" />
    <path
       d="m 522,307 q 0.71,-14.55 -0.28,-29.28"
       fill="none"
       stroke="#161612"
       stroke-width="4.36802"
       stroke-linecap="round"
       stroke-linejoin="round"
       id="path16" />
    <path
       d="m 543,307 q -0.04,-5.65 0.84,-11.21"
       fill="none"
       stroke="#161612"
       stroke-width="2.09806"
       stroke-linecap="round"
       stroke-linejoin="round"
       id="path17" />
    <path
       d="m 564,307 q 0.48,-10.77 0.84,-18.8"
       fill="none"
       stroke="#161612"
       stroke-width="3.06945"
       stroke-linecap="round"
       stroke-linejoin="round"
       id="path18" />
    <path
       d="m 585,307 q -0.85,-5.96 -0.66,-11.7"
       fill="none"
       stroke="#161612"
       stroke-width="2.09634"
       stroke-linecap="round"
       stroke-linejoin="round"
       id="path19" />
    <path
       d="m 606,307 q 0.43,-16.56 -0.98,-30.78"
       fill="none"
       stroke="#161612"
       stroke-width="4.31535"
       stroke-linecap="round"
       stroke-linejoin="round"
       id="path20" />
    <path
       d="m 627,307 q -0.93,-4.34 0.88,-10.04"
       fill="none"
       stroke="#161612"
       stroke-width="2.0002"
       stroke-linecap="round"
       stroke-linejoin="round"
       id="path21" />
    <path
       d="m 648,307 q -1.2,-10.15 -0.57,-21.07"
       fill="none"
       stroke="#161612"
       stroke-width="2.91411"
       stroke-linecap="round"
       stroke-linejoin="round"
       id="path22" />
    <path
       d="m 669,307 q 1.3,-7.23 -0.1,-12.03"
       fill="none"
       stroke="#161612"
       stroke-width="2.41698"
       stroke-linecap="round"
       stroke-linejoin="round"
       id="path23" />
    <path
       d="m 690,307 q -1.77,-14.94 -0.96,-29.3"
       fill="none"
       stroke="#161612"
       stroke-width="4.46795"
       stroke-linecap="round"
       stroke-linejoin="round"
       id="path24" />
    <path
       d="m 711,307 q -0.91,-7.07 -0.21,-12"
       fill="none"
       stroke="#161612"
       stroke-width="2.24724"
       stroke-linecap="round"
       stroke-linejoin="round"
       id="path25" />
    <path
       d="m 732,307 q 0.77,-8.6 0.16,-18.78"
       fill="none"
       stroke="#161612"
       stroke-width="3.11563"
       stroke-linecap="round"
       stroke-linejoin="round"
       id="path26" />
    <path
       d="m 753,307 q 0.81,-5.39 0.65,-12.21"
       fill="none"
       stroke="#161612"
       stroke-width="2.27317"
       stroke-linecap="round"
       stroke-linejoin="round"
       id="path27" />
    <path
       d="m 774,307 q 1.19,-14.07 0.16,-30.06"
       fill="none"
       stroke="#161612"
       stroke-width="4.71873"
       stroke-linecap="round"
       stroke-linejoin="round"
       id="path28" />
    <path
       d="m 795,307 q -0.82,-5.27 0.47,-10.98"
       fill="none"
       stroke="#161612"
       stroke-width="2.47946"
       stroke-linecap="round"
       stroke-linejoin="round"
       id="path29" />
    <path
       d="m 816,307 q 0.41,-11.17 0.76,-20.26"
       fill="none"
       stroke="#161612"
       stroke-width="2.70566"
       stroke-linecap="round"
       stroke-linejoin="round"
       id="path30" />
    <path
       d="m 837,307 q -1.55,-7.09 -0.43,-11.88"
       fill="none"
       stroke="#161612"
       stroke-width="2.18693"
       stroke-linecap="round"
       stroke-linejoin="round"
       id="path31" />
    <path
       d="m 858,307 q -0.06,-14.74 0.61,-29.52"
       fill="none"
       stroke="#161612"
       stroke-width="3.97145"
       stroke-linecap="round"
       stroke-linejoin="round"
       id="path32" />
    <path
       d="m 879,307 q -0.05,-5.03 -0.49,-11.51"
       fill="none"
       stroke="#161612"
       stroke-width="2.25939"
       stroke-linecap="round"
       stroke-linejoin="round"
       id="path33" />
    <path
       d="m 900,307 q 1.37,-9.15 0.83,-18.9"
       fill="none"
       stroke="#161612"
       stroke-width="3.12418"
       stroke-linecap="round"
       stroke-linejoin="round"
       id="path34" />
    <path
       d="m 921,307 q -0.84,-4.41 -0.37,-10.34"
       fill="none"
       stroke="#161612"
       stroke-width="2.48721"
       stroke-linecap="round"
       stroke-linejoin="round"
       id="path35" />
    <path
       d="m 942,307 q 0.33,-14.99 -1.07,-29.91"
       fill="none"
       stroke="#161612"
       stroke-width="3.83475"
       stroke-linecap="round"
       stroke-linejoin="round"
       id="path36" />
    <path
       d="m 963,307 q 1.26,-4.87 -0.08,-9.86"
       fill="none"
       stroke="#161612"
       stroke-width="2.42009"
       stroke-linecap="round"
       stroke-linejoin="round"
       id="path37" />
    <path
       d="m 984,307 q -1.39,-9.26 -0.28,-18.96"
       fill="none"
       stroke="#161612"
       stroke-width="2.91206"
       stroke-linecap="round"
       stroke-linejoin="round"
       id="path38" />
    <path
       d="m 1005,307 q 1.22,-4.9 -0.3,-11.11"
       fill="none"
       stroke="#161612"
       stroke-width="2.336"
       stroke-linecap="round"
       stroke-linejoin="round"
       id="path39" />
    <path
       d="m 1026,307 q 0.02,-15.68 0.53,-30.81"
       fill="none"
       stroke="#161612"
       stroke-width="3.70784"
       stroke-linecap="round"
       stroke-linejoin="round"
       id="path40" />
    <path
       d="m 1047,307 q -0.63,-6.48 -0.88,-10.35"
       fill="none"
       stroke="#161612"
       stroke-width="2.34964"
       stroke-linecap="round"
       stroke-linejoin="round"
       id="path41" />
    <path
       d="m 1068,307 q 0.2,-9.83 0.46,-20.26"
       fill="none"
       stroke="#161612"
       stroke-width="2.63947"
       stroke-linecap="round"
       stroke-linejoin="round"
       id="path42" />
    <path
       d="m 1089,307 q -0.9,-5.62 0.53,-11.21"
       fill="none"
       stroke="#161612"
       stroke-width="2.03897"
       stroke-linecap="round"
       stroke-linejoin="round"
       id="path43" />
    <path
       d="m 1110,307 q -1.8,-19.34 -1.02,-39.75"
       fill="none"
       stroke="#161612"
       stroke-width="4.45897"
       stroke-linecap="round"
       stroke-linejoin="round"
       id="path44" />
    <g
       transform="matrix(0.875,0,0,0.875,259.94,232.6)"
       stroke="#161612"
       stroke-width="2.7"
       fill="none"
       stroke-linecap="round"
       stroke-linejoin="round"
       id="g45">
      <path
         transform="rotate(1.26,-4.5507226,15.16)"
         d="M 12,2 C 3,-1 0,8 1,16 0,25 3,32 10,31 18,33 22,24 21,14 22,6 18,1 12,2 Z"
         id="path45" />
    </g>
    <g
       transform="matrix(0.875,0,0,0.875,344.81,232.39)"
       stroke="#161612"
       stroke-width="2.7"
       fill="none"
       stroke-linecap="round"
       stroke-linejoin="round"
       id="g46">
      <path
         transform="rotate(-0.31,37.723697,15.075)"
         d="M 2,9 Q 7,6 12,1 l -1,30 m -7,0 q 8,-1 15,0"
         id="path46" />
    </g>
    <g
       transform="matrix(0.875,0,0,0.875,427.06,232.86)"
       stroke="#161612"
       stroke-width="2.7"
       fill="none"
       stroke-linecap="round"
       stroke-linejoin="round"
       id="g47">
      <path
         transform="rotate(-2.98,7.3088588,14.93)"
         d="M 1,7 C 5,-2 20,-1 20,8 20,14 9,20 2,30 q 10,-1 21,0"
         id="path47" />
    </g>
    <g
       transform="matrix(0.875,0,0,0.875,511.5,231.22)"
       stroke="#161612"
       stroke-width="2.7"
       fill="none"
       stroke-linecap="round"
       stroke-linejoin="round"
       id="g48">
      <path
         transform="rotate(-2.5,16.416109,15.14)"
         d="m 2,4 q 9,-5 18,-1 2,8 -9,12 12,0 10,9 -3,10 -19,5"
         id="path48" />
    </g>
    <g
       transform="matrix(0.875,0,0,0.875,595.06,231.14)"
       stroke="#161612"
       stroke-width="2.7"
       fill="none"
       stroke-linecap="round"
       stroke-linejoin="round"
       id="g49">
      <path
         transform="rotate(0.12,138.91546,14.865)"
         d="M 15,1 1,21 23,20 M 16,2 15,32"
         id="path49" />
    </g>
    <g
       transform="matrix(0.875,0,0,0.875,679.06,232.77)"
       stroke="#161612"
       stroke-width="2.7"
       fill="none"
       stroke-linecap="round"
       stroke-linejoin="round"
       id="g50">
      <path
         transform="rotate(-1.23,17.452823,15.08)"
         d="M 20,2 H 4 L 3,15 q 17,-6 18,7 1,11 -19,7"
         id="path50" />
    </g>
    <g
       transform="matrix(0.875,0,0,0.875,763.06,232.3)"
       stroke="#161612"
       stroke-width="2.7"
       fill="none"
       stroke-linecap="round"
       stroke-linejoin="round"
       id="g51">
      <path
         transform="rotate(-1.91,10.89985,15.015)"
         d="M 19,2 C 7,-2 0,14 2,24 5,37 24,32 22,21 21,12 7,12 2,20"
         id="path51" />
    </g>
    <g
       transform="matrix(0.875,0,0,0.875,847.06,231.94)"
       stroke="#161612"
       stroke-width="2.7"
       fill="none"
       stroke-linecap="round"
       stroke-linejoin="round"
       id="g52">
      <path
         transform="rotate(1.56,26.526608,14.775)"
         d="M 1,2 Q 12,1 23,2 14,15 10,31"
         id="path52" />
    </g>
    <g
       transform="matrix(0.875,0,0,0.875,931.06,231.83)"
       stroke="#161612"
       stroke-width="2.7"
       fill="none"
       stroke-linecap="round"
       stroke-linejoin="round"
       id="g53">
      <path
         transform="rotate(2.83,16.27494,14.845)"
         d="M 11,15 C -4,12 0,0 12,2 25,0 26,13 11,15 -4,17 -1,33 12,31 27,33 28,17 11,15 Z"
         id="path53" />
    </g>
    <g
       transform="matrix(0.875,0,0,0.875,1015.06,231.47)"
       stroke="#161612"
       stroke-width="2.7"
       fill="none"
       stroke-linecap="round"
       stroke-linejoin="round"
       id="g54">
      <path
         transform="rotate(-0.66,38.647573,15.165)"
         d="M 21,15 C 14,22 1,18 2,8 4,-2 23,-1 22,12 23,24 16,32 5,31"
         id="path54" />
    </g>
    <g
       transform="matrix(1.3438,0,0,1.3438,1078.42,221)"
       stroke="#161612"
       stroke-width="3"
       fill="none"
       stroke-linecap="round"
       stroke-linejoin="round"
       id="g56">
      <path
         transform="rotate(1.65,5.8333222,15.06)"
         d="M 2,9 Q 7,6 12,1 l -1,30 m -7,0 q 8,-1 15,0"
         id="path55" />
      <path
         transform="rotate(-2.89,24.973199,-460.63682)"
         d="M 12,2 C 3,-1 0,8 1,16 0,25 3,32 10,31 18,33 22,24 21,14 22,6 18,1 12,2 Z"
         id="path56" />
    </g>
    <g
       transform="matrix(0.7812,0,0,0.7812,1161,233)"
       stroke="#161612"
       stroke-width="2.6"
       fill="none"
       stroke-linecap="round"
       stroke-linejoin="round"
       id="g58">
      <path
         transform="rotate(1.45,27.385378,14.78)"
         d="M 18,12 C 6,5 0,15 3,25 c 2,7 10,7 16,2"
         id="path57" />
      <path
         transform="rotate(-0.54,2.3405231,-2637.6577)"
         d="M 1,30 2,11 v 6 C 5,6 14,6 13,17 V 29 M 13,17 C 16,6 24,7 24,18 v 12"
         id="path58" />
    </g>
  </g>
  <text
     xml:space="preserve"
     style="font-size:96px;font-family:'Biro Script US Plus';-inkscape-font-specification:'Biro Script US Plus';writing-mode:lr-tb;direction:ltr;fill:#e3dbdb;fill-opacity:0.73075;stroke:#42c247;stroke-width:2;stroke-linecap:round;stroke-linejoin:round"
     x="281.47827"
     y="445.21738"
     id="text76"><tspan
       sodipodi:role="line"
       id="tspan76"
       x="281.47827"
       y="445.21738"
       style="font-style:normal;font-variant:normal;font-weight:normal;font-stretch:normal;font-family:Bookerly;-inkscape-font-specification:Bookerly;fill:#3d3dbc;fill-opacity:1;stroke:none">How do you know?</tspan></text>
</svg>
